<?xml version="1.0" encoding="UTF-8" standalone="no"?>
<!-- Created with Inkscape (http://www.inkscape.org/) -->

<svg
   xmlns:dc="http://purl.org/dc/elements/1.1/"
   xmlns:cc="http://creativecommons.org/ns#"
   xmlns:rdf="http://www.w3.org/1999/02/22-rdf-syntax-ns#"
   xmlns:svg="http://www.w3.org/2000/svg"
   xmlns="http://www.w3.org/2000/svg"
   xmlns:sodipodi="http://sodipodi.sourceforge.net/DTD/sodipodi-0.dtd"
   xmlns:inkscape="http://www.inkscape.org/namespaces/inkscape"
   sodipodi:docname="Comic FX f1 - Copy (2) - Copy.svg"
   inkscape:version="0.92.1 r15371"
   id="svg8"
   version="1.1"
   viewBox="0 0 39.309341 27.038506"
   height="27.038506mm"
   width="39.309341mm">
  <defs
     id="defs2" />
  <sodipodi:namedview
     inkscape:window-maximized="1"
     inkscape:window-y="-8"
     inkscape:window-x="-8"
     inkscape:window-height="705"
     inkscape:window-width="1368"
     showgrid="false"
     inkscape:current-layer="layer1"
     inkscape:document-units="mm"
     inkscape:cy="-31.916947"
     inkscape:cx="-485.74985"
     inkscape:zoom="0.60728983"
     inkscape:pageshadow="2"
     inkscape:pageopacity="0.0"
     borderopacity="1.0"
     bordercolor="#666666"
     pagecolor="#ffffff"
     id="base" />
  <metadata
     id="metadata5">
    <rdf:RDF>
      <cc:Work
         rdf:about="">
        <dc:format>image/svg+xml</dc:format>
        <dc:type
           rdf:resource="http://purl.org/dc/dcmitype/StillImage" />
        <dc:title />
      </cc:Work>
    </rdf:RDF>
  </metadata>
  <g
     inkscape:label="Layer 1"
     inkscape:groupmode="layer"
     id="layer1"
     transform="translate(-68.160718,-121.68027)">
    <path
       inkscape:connector-curvature="0"
       id="path23820"
       d="m 87.812581,122.19027 c -3.296751,-2.1e-4 -6.593505,0.021 -9.889911,0.0591 -0.316302,0.003 -0.634047,-0.009 -0.948264,0.024 -0.610062,0.0696 -1.217493,0.1896 -1.804317,0.37041 -0.574908,0.1773 -1.134471,0.41265 -1.665831,0.6948 -0.521427,0.2772 -1.021206,0.60195 -1.480815,0.97278 -0.454344,0.36645 -0.872739,0.78078 -1.248876,1.22727 -0.374895,0.44541 -0.714141,0.92568 -0.994692,1.43598 -0.2865,0.52128 -0.517008,1.07604 -0.694029,1.64403 -0.18075,0.57957 -0.29346,1.18116 -0.370428,1.78338 -0.03972,0.30687 -0.0447,0.61716 -0.0447,0.92631 0,0.30936 0.0099,0.61968 0.0447,0.92637 0.07698,0.60216 0.1887,1.20423 0.370428,1.78335 0.17628,0.56076 0.411642,1.10571 0.694029,1.62111 0.28305,0.51621 0.617163,1.00734 0.994692,1.45884 0.3744,0.4479 0.79458,0.86079 1.248876,1.22733 0.459807,0.37092 0.959388,0.69582 1.480815,0.97275 0.53136,0.282 1.090923,0.51771 1.51632,0.68613 0.21897,0.0675 -4.155042,8.20467 -4.155042,8.20467 l 11.606289,-7.76001 -0.0198,-4.8e-4 c 5.083545,0.0348 10.167384,0.021 15.25053,-0.0396 0.323751,-0.003 0.649887,0.015 0.971751,-0.024 0.610113,-0.0696 1.217496,-0.1902 1.804364,-0.37092 0.57491,-0.1773 1.13448,-0.41265 1.66584,-0.69477 0.52142,-0.2772 1.0212,-0.60192 1.48081,-0.97275 0.45434,-0.36645 0.87443,-0.7794 1.24888,-1.22733 0.37738,-0.45135 0.7123,-0.94266 0.99523,-1.45887 0.28254,-0.51537 0.51776,-1.06032 0.69403,-1.62108 0.18225,-0.57912 0.30042,-1.18026 0.36993,-1.78338 0.0348,-0.30687 0.0249,-0.61746 0.0249,-0.92637 0,-0.30885 0.01,-0.61947 -0.0249,-0.92631 -0.0695,-0.60276 -0.18918,-1.20342 -0.36993,-1.78302 -0.17676,-0.56799 -0.40766,-1.12275 -0.69403,-1.64403 -0.28056,-0.5103 -0.62014,-0.99066 -0.99523,-1.43598 -0.37589,-0.4464 -0.79458,-0.86076 -1.24888,-1.2273 -0.45981,-0.37095 -0.95939,-0.69582 -1.48081,-0.97281 -0.53136,-0.282 -1.09093,-0.51765 -1.66584,-0.69477 -0.58682,-0.1806 -1.194251,-0.3009 -1.804313,-0.37044 -0.321765,-0.0348 -0.64785,-0.021 -0.971751,-0.024 -3.296406,-0.0396 -6.59316,-0.0591 -9.889911,-0.0591 z"
       style="fill:#ffffff;fill-opacity:1;fill-rule:nonzero;stroke:#000000;stroke-width:1.01999998;stroke-linecap:round;stroke-linejoin:round;stroke-miterlimit:10;stroke-dasharray:none;stroke-opacity:1" />
    <path
       inkscape:connector-curvature="0"
       id="path5476"
       style="font-style:normal;font-variant:normal;font-weight:bold;font-stretch:normal;font-size:2.82222223px;line-height:13.22916603px;font-family:'Comic Sans MS';-inkscape-font-specification:'Comic Sans MS Bold';text-align:center;letter-spacing:0px;word-spacing:0px;text-anchor:middle;fill:#000000;fill-opacity:1;stroke:none;stroke-width:0.79374993px;stroke-linecap:butt;stroke-linejoin:miter;stroke-opacity:1"
       d="m 82.764379,128.28621 q -0.07029,0.1695 -0.16536,0.41754 -0.07029,0.2397 -0.22737,0.71109 -0.23565,0.60771 -0.748275,1.7694 -0.52503,1.18236 -0.752409,1.76526 -0.1695,0.43407 -0.318324,0.69453 -0.19431,0.34314 -0.59118,0.34314 -0.23565,0 -0.425814,-0.1281 -0.22323,-0.1488 -0.23979,-0.39276 -0.19017,-0.47541 -0.23979,-0.77721 -0.18189,-0.8847 -0.504363,-2.65824 -0.26871,0.83097 -0.578775,1.49244 -0.463023,0.99219 -0.607716,1.55856 0.0372,0.0909 0.0372,0.1944 0,0.2562 -0.22737,0.41757 -0.19845,0.1365 -0.438216,0.1365 -0.301791,0 -0.500226,-0.153 -0.21498,-0.1695 -0.22323,-0.46302 l -0.12816,-0.48369 q -0.13641,-0.64491 -0.446484,-1.92648 -0.27285,-0.9798 -0.913638,-2.79054 -0.0372,-0.1035 -0.0372,-0.2067 0,-0.2481 0.19017,-0.39273 0.1695,-0.1323 0.409278,-0.1323 0.314193,0 0.500229,0.2646 0.10335,0.1446 0.23565,0.52503 0.405144,1.16583 0.913638,3.39825 0.330729,-0.80616 0.67386,-1.9017 0.27699,-0.89295 0.450621,-1.26915 0.413409,-0.90126 0.843357,-0.90126 0.405144,0 0.59118,0.44235 0.09096,0.2109 0.17778,0.76482 0.0249,0.1695 0.10749,0.83097 0.08682,0.71106 0.520896,2.58795 0.438216,-1.02525 1.178223,-2.9559 0.04548,-0.1158 0.21498,-0.76068 0.11988,-0.46302 0.301791,-0.73173 0.19845,-0.2895 0.529167,-0.2895 0.25218,0 0.417546,0.1572 0.16536,0.153 0.16536,0.39687 0,0.0867 -0.14469,0.44649 z" />
    <path
       inkscape:connector-curvature="0"
       id="path5478"
       style="font-style:normal;font-variant:normal;font-weight:bold;font-stretch:normal;font-size:2.82222223px;line-height:13.22916603px;font-family:'Comic Sans MS';-inkscape-font-specification:'Comic Sans MS Bold';text-align:center;letter-spacing:0px;word-spacing:0px;text-anchor:middle;fill:#000000;fill-opacity:1;stroke:none;stroke-width:0.79374993px;stroke-linecap:butt;stroke-linejoin:miter;stroke-opacity:1"
       d="m 86.327986,134.74248 q -1.223697,0 -2.083593,-0.70281 -0.917775,-0.7524 -0.917775,-1.94718 0,-1.40559 0.880566,-2.56314 0.988053,-1.30224 2.488737,-1.30224 1.442808,0 2.162142,0.66144 0.719337,0.66147 0.719337,1.98852 0,1.40559 -0.810288,2.54661 -0.934308,1.3188 -2.439126,1.3188 z m 0.367935,-5.39502 q -0.921906,0 -1.57923,0.89295 -0.615984,0.83511 -0.615984,1.85208 0,0.68628 0.533301,1.11621 0.512631,0.41343 1.293978,0.41343 0.909504,0 1.51722,-0.89298 0.558105,-0.81441 0.558105,-1.85208 0,-0.86817 -0.388605,-1.20717 -0.372072,-0.32244 -1.318785,-0.32244 z" />
    <path
       inkscape:connector-curvature="0"
       id="path5480"
       style="font-style:normal;font-variant:normal;font-weight:bold;font-stretch:normal;font-size:2.82222223px;line-height:13.22916603px;font-family:'Comic Sans MS';-inkscape-font-specification:'Comic Sans MS Bold';text-align:center;letter-spacing:0px;word-spacing:0px;text-anchor:middle;fill:#000000;fill-opacity:1;stroke:none;stroke-width:0.79374993px;stroke-linecap:butt;stroke-linejoin:miter;stroke-opacity:1"
       d="m 98.325187,128.28621 q -0.07029,0.1695 -0.16536,0.41754 -0.07029,0.2397 -0.22737,0.71109 -0.23565,0.60771 -0.748275,1.7694 -0.525033,1.18236 -0.752409,1.76526 -0.1695,0.43407 -0.318327,0.69453 -0.19431,0.34314 -0.591177,0.34314 -0.23565,0 -0.425814,-0.1281 -0.22323,-0.1488 -0.23979,-0.39276 -0.19017,-0.47541 -0.23979,-0.77721 -0.18189,-0.8847 -0.504363,-2.65824 -0.26871,0.83097 -0.578775,1.49244 -0.463023,0.99219 -0.607716,1.55856 0.0372,0.0909 0.0372,0.1944 0,0.2562 -0.22737,0.41757 -0.19845,0.1365 -0.438216,0.1365 -0.301791,0 -0.500226,-0.153 -0.21498,-0.1695 -0.22323,-0.46302 l -0.12816,-0.48369 q -0.13641,-0.64491 -0.446484,-1.92648 -0.27285,-0.9798 -0.913638,-2.79054 -0.0372,-0.1035 -0.0372,-0.2067 0,-0.2481 0.19017,-0.39273 0.1695,-0.1323 0.409278,-0.1323 0.314193,0 0.500229,0.2646 0.10335,0.1446 0.23565,0.52503 0.405141,1.16583 0.913638,3.39825 0.330729,-0.80616 0.67386,-1.9017 0.27699,-0.89295 0.450621,-1.26915 0.413409,-0.90126 0.843357,-0.90126 0.405144,0 0.59118,0.44235 0.09096,0.2109 0.17775,0.76482 0.0249,0.1695 0.10749,0.83097 0.08682,0.71106 0.520899,2.58795 0.438216,-1.02525 1.178223,-2.9559 0.04548,-0.1158 0.21498,-0.76068 0.11988,-0.46302 0.301791,-0.73173 0.19845,-0.2895 0.529167,-0.2895 0.25218,0 0.417546,0.1572 0.16536,0.153 0.16536,0.39687 0,0.0867 -0.14469,0.44649 z" />
    <path
       inkscape:connector-curvature="0"
       id="path5482"
       style="font-style:normal;font-variant:normal;font-weight:bold;font-stretch:normal;font-size:2.82222223px;line-height:13.22916603px;font-family:'Comic Sans MS';-inkscape-font-specification:'Comic Sans MS Bold';text-align:center;letter-spacing:0px;word-spacing:0px;text-anchor:middle;fill:#000000;fill-opacity:1;stroke:none;stroke-width:0.79374993px;stroke-linecap:butt;stroke-linejoin:miter;stroke-opacity:1"
       d="m 99.837847,132.55485 q -0.228,-0.0402 -0.353508,-0.2094 -0.12144,-0.1683 -0.0834,-0.38412 0.0279,-0.1587 0.07107,-0.47442 0.04785,-0.31899 0.07584,-0.47778 0.09906,-0.56184 0.305343,-1.68408 0.210358,-1.12152 0.309418,-1.68336 0.038,-0.2157 0.21381,-0.33171 0.17649,-0.12 0.4004,-0.0804 0.22392,0.0396 0.34872,0.2127 0.12552,0.1692 0.0875,0.38481 l -0.76167,4.31967 q -0.038,0.2157 -0.21381,0.33171 -0.17169,0.1167 -0.399687,0.0765 z m -0.27282,1.47573 q -0.24429,-0.0432 -0.410043,-0.34098 -0.14901,-0.2739 -0.11238,-0.48159 0.03732,-0.2118 0.22938,-0.32475 0.19206,-0.1131 0.403758,-0.0756 0.24429,0.0432 0.405968,0.34026 0.14901,0.2739 0.1131,0.47751 -0.0366,0.2076 -0.229376,0.32478 -0.1887,0.1179 -0.400404,0.0804 z" />
  </g>
</svg>
